<svg width="65" height="33" viewBox="0 0 65 33" fill="none" xmlns="http://www.w3.org/2000/svg">
<path fill-rule="evenodd" clip-rule="evenodd" d="M2 0C0.895431 0 0 0.89543 0 2V22C0 23.1046 0.89543 24 2 24H26.8039L32 33L37.1962 24H63C64.1046 24 65 23.1046 65 22V2C65 0.895431 64.1046 0 63 0H2Z" fill="#2B2B2B"/>
<path d="M15.9588 18V9.27273H17.2756V13.0653H21.6264V9.27273H22.9474V18H21.6264V14.1946H17.2756V18H15.9588ZM27.5199 18.1321C26.9063 18.1321 26.3707 17.9915 25.9134 17.7102C25.456 17.429 25.1009 17.0355 24.848 16.5298C24.5952 16.0241 24.4688 15.4332 24.4688 14.7571C24.4688 14.0781 24.5952 13.4844 24.848 12.9759C25.1009 12.4673 25.456 12.0724 25.9134 11.7912C26.3707 11.5099 26.9063 11.3693 27.5199 11.3693C28.1335 11.3693 28.669 11.5099 29.1264 11.7912C29.5838 12.0724 29.9389 12.4673 30.1918 12.9759C30.4446 13.4844 30.571 14.0781 30.571 14.7571C30.571 15.4332 30.4446 16.0241 30.1918 16.5298C29.9389 17.0355 29.5838 17.429 29.1264 17.7102C28.669 17.9915 28.1335 18.1321 27.5199 18.1321ZM27.5241 17.0625C27.9219 17.0625 28.2514 16.9574 28.5128 16.7472C28.7741 16.5369 28.9673 16.2571 29.0923 15.9077C29.2202 15.5582 29.2841 15.1733 29.2841 14.7528C29.2841 14.3352 29.2202 13.9517 29.0923 13.6023C28.9673 13.25 28.7741 12.9673 28.5128 12.7543C28.2514 12.5412 27.9219 12.4347 27.5241 12.4347C27.1236 12.4347 26.7912 12.5412 26.527 12.7543C26.2656 12.9673 26.071 13.25 25.9432 13.6023C25.8182 13.9517 25.7557 14.3352 25.7557 14.7528C25.7557 15.1733 25.8182 15.5582 25.9432 15.9077C26.071 16.2571 26.2656 16.5369 26.527 16.7472C26.7912 16.9574 27.1236 17.0625 27.5241 17.0625ZM31.9933 18V11.4545H33.2163V12.5199H33.2972C33.4336 12.1591 33.6566 11.8778 33.9663 11.6761C34.2759 11.4716 34.6467 11.3693 35.0785 11.3693C35.516 11.3693 35.8825 11.4716 36.1779 11.6761C36.4762 11.8807 36.6964 12.1619 36.8384 12.5199H36.9066C37.0629 12.1705 37.3114 11.892 37.6523 11.6847C37.9933 11.4744 38.3995 11.3693 38.8711 11.3693C39.4648 11.3693 39.9492 11.5554 40.3242 11.9276C40.7021 12.2997 40.891 12.8608 40.891 13.6108V18H39.6168V13.7301C39.6168 13.2869 39.4961 12.9659 39.2546 12.767C39.0131 12.5682 38.7248 12.4688 38.3896 12.4688C37.9748 12.4688 37.6523 12.5966 37.4222 12.8523C37.1921 13.1051 37.0771 13.4304 37.0771 13.8281V18H35.8072V13.6491C35.8072 13.294 35.6964 13.0085 35.4748 12.7926C35.2532 12.5767 34.9648 12.4688 34.6097 12.4688C34.3683 12.4688 34.1452 12.5327 33.9407 12.6605C33.739 12.7855 33.5756 12.9602 33.4506 13.1847C33.3285 13.4091 33.2674 13.669 33.2674 13.9645V18H31.9933ZM45.4197 18.1321C44.7749 18.1321 44.2195 17.9943 43.7536 17.7188C43.2905 17.4403 42.9325 17.0497 42.6797 16.5469C42.4297 16.0412 42.3047 15.4489 42.3047 14.7699C42.3047 14.0994 42.4297 13.5085 42.6797 12.9972C42.9325 12.4858 43.2848 12.0866 43.7365 11.7997C44.1911 11.5128 44.7223 11.3693 45.3303 11.3693C45.6996 11.3693 46.0575 11.4304 46.4041 11.5526C46.7507 11.6747 47.0618 11.8665 47.3374 12.1278C47.6129 12.3892 47.8303 12.7287 47.9893 13.1463C48.1484 13.5611 48.228 14.0653 48.228 14.6591V15.1108H43.0249V14.1562H46.9794C46.9794 13.821 46.9112 13.5241 46.7749 13.2656C46.6385 13.0043 46.4467 12.7983 46.1996 12.6477C45.9553 12.4972 45.6683 12.4219 45.3388 12.4219C44.9808 12.4219 44.6683 12.5099 44.4013 12.6861C44.1371 12.8594 43.9325 13.0866 43.7876 13.3679C43.6456 13.6463 43.5746 13.9489 43.5746 14.2756V15.0213C43.5746 15.4588 43.6513 15.831 43.8047 16.1378C43.9609 16.4446 44.1783 16.679 44.4567 16.8409C44.7351 17 45.0604 17.0795 45.4325 17.0795C45.674 17.0795 45.8942 17.0455 46.093 16.9773C46.2919 16.9062 46.4638 16.8011 46.6087 16.6619C46.7536 16.5227 46.8643 16.3509 46.9411 16.1463L48.147 16.3636C48.0504 16.7187 47.8771 17.0298 47.6271 17.2969C47.38 17.5611 47.0689 17.767 46.6939 17.9148C46.3217 18.0597 45.897 18.1321 45.4197 18.1321Z" fill="white"/>
</svg>
